<svg version="1" xmlns="http://www.w3.org/2000/svg" width="256" height="256" viewBox="0 0 192.000000 192.000000"><path d="M156.7 10.6c-.1.1-4.5.5-9.7.8-24.1 1.6-28.6 1.9-30.5 2.1-1.1.1-3 .3-4.3.4-2.3.1-2.3.2-1.7 9.3.4 5.1.8 11.3 1 13.8.3 5.3 1.4 20.1 2 28 .2 3 .7 9.8 1 15 .7 10.9 1.3 19.7 2 29 .5 7.2-.5 10.2-4.6 13.3-5.9 4.3-16.3 2.7-19.2-3-.8-1.5-1.8-6.9-2.1-11.8-.7-10.4-1.4-20.2-2.1-29.5-.2-3.6-.7-10.6-1.1-15.5-.3-5-.7-11-.9-13.5-.2-2.5-.7-9.5-1.1-15.5-.6-9.6-.9-13.8-1.3-16.8-.1-.7-13.6-.3-24 .8-6.6.6-31.8 2.2-39.5 2.4l-3.8.1.6 6.7c.3 3.8.9 11.1 1.2 16.3.4 5.2.8 10.8.9 12.5.2 1.6.3 4.3.4 5.8l.1 2.8 6.5-.6c5.7-.4 6.5-.3 6.6 1.3 0 .9.2 2.4.4 3.2.1.8.6 6.9 1 13.5.3 6.6.8 13.6 1 15.5.2 1.9.6 8.4 1 14.5 1.6 26.5 3.1 33.8 9 43 11.7 18.3 32.8 27.7 59.9 26.9 32.8-1 59.1-18.9 65-44.3 1.4-6 1.5-18.7.2-33.1-.3-3-.8-9.3-1.1-14-.3-4.7-.8-11.4-1-15-.3-3.6-.7-10.3-1-15-.3-4.7-.7-10.5-1-13-.3-3.9-.8-11.5-2.1-30.5-.1-2.8-.3-5.3-.3-5.6-.1-.6-6.8-.8-7.4-.3z"/></svg>