<?xml version="1.0" standalone="no"?>
<!DOCTYPE svg PUBLIC "-//W3C//DTD SVG 20010904//EN"
 "http://www.w3.org/TR/2001/REC-SVG-20010904/DTD/svg10.dtd">
<svg version="1.0" xmlns="http://www.w3.org/2000/svg"
 width="192.000000pt" height="192.000000pt" viewBox="0 0 192.000000 192.000000"
 preserveAspectRatio="xMidYMid meet">
<g transform="translate(0.000000,192.000000) scale(0.100000,-0.100000)"
fill="#000000" stroke="none">
<path d="M1567 1814 c-1 -1 -45 -5 -97 -8 -241 -16 -286 -19 -305 -21 -11 -1
-30 -3 -43 -4 -23 -1 -23 -2 -17 -93 4 -51 8 -113 10 -138 3 -53 14 -201 20
-280 2 -30 7 -98 10 -150 7 -109 13 -197 20 -290 5 -72 -5 -102 -46 -133 -59
-43 -163 -27 -192 30 -8 15 -18 69 -21 118 -7 104 -14 202 -21 295 -2 36 -7
106 -11 155 -3 50 -7 110 -9 135 -2 25 -7 95 -11 155 -6 96 -9 138 -13 168 -1
7 -136 3 -240 -8 -66 -6 -318 -22 -395 -24 l-38 -1 6 -67 c3 -38 9 -111 12
-163 4 -52 8 -108 9 -125 2 -16 3 -43 4 -58 l1 -28 65 6 c57 4 65 3 66 -13 0
-9 2 -24 4 -32 1 -8 6 -69 10 -135 3 -66 8 -136 10 -155 2 -19 6 -84 10 -145
16 -265 31 -338 90 -430 117 -183 328 -277 599 -269 328 10 591 189 650 443
14 60 15 187 2 331 -3 30 -8 93 -11 140 -3 47 -8 114 -10 150 -3 36 -7 103
-10 150 -3 47 -7 105 -10 130 -3 39 -8 115 -21 305 -1 28 -3 53 -3 56 -1 6
-68 8 -74 3z"/>
</g>
</svg>
